<svg width="110" height="22" viewBox="0 0 110 22" fill="none" xmlns="http://www.w3.org/2000/svg">
<path d="M15.6133 4.12565C15.5752 4.1697 15.5439 4.22048 15.5177 4.27274L9.61459 16.0559C9.61459 16.0559 8.74174 17.6224 10.1798 18.3855C10.3889 18.496 10.6241 18.5505 10.8608 18.5505H18.3237L19.322 16.5323H12.2429C12.157 16.5323 12.0808 16.4792 12.0495 16.3994C12.0136 16.3083 11.9987 16.2351 12.0189 16.1462C12.0435 16.038 14.2865 11.6558 14.2865 11.6558H20.9774L21.9981 9.63754H15.3072L17.1567 6.02592C17.1955 5.9505 17.2515 5.88554 17.3202 5.83552C17.4509 5.74144 17.6696 5.59957 17.8018 5.59957H24.7876L25.8083 3.58133H16.5093C16.5093 3.58133 16.0486 3.61642 15.6133 4.1249" fill="#006837"/>
<path d="M82.773 4.12565C82.7349 4.1697 82.7035 4.22048 82.6774 4.27274L76.7743 16.0559C76.7743 16.0559 75.9014 17.6224 77.3395 18.3855C77.5486 18.496 77.7838 18.5505 78.0205 18.5505H85.4834L86.4817 16.5323H79.4025C79.3167 16.5323 79.2405 16.4792 79.2091 16.3994C79.1733 16.3083 79.1584 16.2351 79.1785 16.1462C79.2032 16.038 81.4462 11.6558 81.4462 11.6558H88.137L89.1577 9.63754H82.4668L84.3163 6.02592C84.3552 5.9505 84.4112 5.88554 84.4799 5.83552C84.6105 5.74144 84.8293 5.59957 84.9615 5.59957H91.9473L92.968 3.58133H83.669C83.669 3.58133 83.2083 3.61642 82.773 4.1249" fill="#006837"/>
<path d="M20.7496 18.5512L28.2566 3.58208H35.2432C35.7255 3.58208 36.2012 3.7008 36.6215 3.93674C37.1069 4.20928 37.6952 4.66474 38.0663 5.38453C38.7913 6.79125 38.4076 7.94186 38.4076 7.94186C38.4076 7.94186 38.2381 8.71018 38.1402 8.9872C37.8304 9.8593 37.4145 10.7314 36.7738 11.4101C36.3363 11.8731 36.2579 11.9657 36.0055 12.1598C35.7532 12.3539 35.3477 12.6406 35.1334 12.7683C34.9184 12.8953 34.3494 13.1857 34.1262 13.2649C33.9037 13.344 33.6602 13.4373 33.4818 13.4754C33.3026 13.5135 32.9711 13.6023 32.8613 13.6068C33.1413 14.5043 33.2869 15.4601 33.0495 16.3844C32.8807 17.043 32.6463 17.6941 32.4477 18.3459C32.4268 18.4146 32.4058 18.4826 32.3849 18.5512H30.3436L31.1612 15.9155C31.2829 15.5228 31.2634 15.089 31.1768 14.691C31.0544 14.1295 30.6467 13.6524 30.0337 13.6524H28.5523L29.5498 11.6334H32.1587C32.1587 11.6334 32.4073 11.611 32.4081 11.611C33.5139 11.5102 34.7056 10.833 35.3111 9.88768C35.3111 9.88768 35.6053 9.38965 35.6061 9.3889C35.954 8.79978 36.1063 8.09269 36.1175 7.41322C36.1287 6.74421 35.8666 5.61077 35.0028 5.60928L29.7328 5.60106L23.2457 18.5512H20.7511H20.7496Z" fill="#006837"/>
<path d="M35.7592 18.5512L43.2661 3.58208H50.2527C50.735 3.58208 51.2107 3.7008 51.631 3.93674C52.1171 4.20928 52.7048 4.66474 53.0758 5.38453C53.8009 6.79125 53.4171 7.94186 53.4171 7.94186C53.4171 7.94186 53.2476 8.71018 53.1498 8.9872C52.8399 9.8593 52.424 10.7314 51.7834 11.4101C51.3458 11.8731 51.2674 11.9657 51.015 12.1598C50.7627 12.3539 50.3572 12.6406 50.1429 12.7683C49.9279 12.8953 49.3589 13.1857 49.1357 13.2649C48.9132 13.344 48.6698 13.4373 48.4913 13.4754C48.3121 13.5135 47.9806 13.6023 47.8708 13.6068C48.1508 14.5043 48.2964 15.4601 48.059 16.3844C47.8902 17.043 47.6558 17.6941 47.4572 18.3459C47.4363 18.4146 47.4154 18.4826 47.3945 18.5512H45.3531L46.1707 15.9155C46.2924 15.5228 46.273 15.089 46.1864 14.691C46.0639 14.1295 45.6562 13.6524 45.0432 13.6524H43.5618L44.5594 11.6334H47.1682C47.1682 11.6334 47.4169 11.611 47.4176 11.611C48.5234 11.5102 49.7151 10.833 50.3206 9.88768C50.3206 9.88768 50.6148 9.38965 50.6156 9.3889C50.9635 8.79978 51.1158 8.09269 51.127 7.41322C51.1382 6.74421 50.8762 5.61077 50.0115 5.60928L44.7416 5.60106L38.2545 18.5512H35.7599H35.7592Z" fill="#006837"/>
<path d="M57.3595 4.12565C57.3214 4.1697 57.29 4.22048 57.2639 4.27274L51.3607 16.0559C51.3607 16.0559 50.4886 17.6224 51.9267 18.3855C52.1358 18.496 52.371 18.5505 52.6069 18.5505H60.0699L61.0682 16.5323H53.989C53.9031 16.5323 53.827 16.4792 53.7956 16.3994C53.7598 16.3083 53.7449 16.2351 53.765 16.1462C53.7889 16.038 56.0326 11.6558 56.0326 11.6558H62.7235L63.7442 9.63754H57.0533L58.9036 6.02592C58.9424 5.9505 58.9984 5.88554 59.0671 5.83552C59.1978 5.74144 59.4165 5.59957 59.5487 5.59957H66.5345L67.5552 3.58133H58.2562C58.2562 3.58133 57.7955 3.61642 57.3602 4.1249" fill="#006837"/>
<path d="M78.6925 6.12746C78.5021 5.0336 77.6792 4.10176 76.6488 3.70901C76.622 3.69856 76.5958 3.6881 76.5682 3.67989C76.342 3.61493 76.1075 3.58208 75.8716 3.58208H69.5585L62.0515 18.5512H69.5981C69.7384 18.5512 69.8781 18.5468 70.0177 18.5386L70.2977 18.5214C70.4702 18.5109 70.6419 18.4893 70.8114 18.4564L71.0817 18.4042C71.2004 18.381 71.3176 18.3526 71.4341 18.319C72.9551 17.8778 74.2632 17.0198 75.2055 15.7303C75.3116 15.5855 75.4034 15.4302 75.4796 15.2667L78.1915 9.45909C78.6312 8.51754 78.8224 7.42144 78.7276 6.38581C78.7201 6.29994 78.7082 6.21333 78.6932 6.12672M76.7818 7.46922C76.7743 7.59914 76.7526 7.72757 76.716 7.85226L76.6951 7.9217C76.6698 8.00682 76.6384 8.09045 76.6003 8.17109L73.9519 13.7367C73.8205 14.0123 73.6592 14.2721 73.4695 14.5118C73.3725 14.635 73.2679 14.7515 73.1574 14.862L72.8244 15.195L72.2801 15.6258L71.9172 15.8409C71.7515 15.9394 71.579 16.0253 71.4005 16.0992L71.2579 16.1582C71.0929 16.2261 70.9242 16.2836 70.7524 16.3292L70.5038 16.3956C70.388 16.4262 70.2716 16.4524 70.1536 16.4725C69.9236 16.5128 69.6914 16.533 69.4584 16.533H65.2726L71.0332 5.60106H75.0316C75.1929 5.60106 75.3534 5.62421 75.5079 5.66976L75.5162 5.672C75.6125 5.70037 75.7058 5.73696 75.7947 5.78176L75.8088 5.78922C75.9507 5.86016 76.0821 5.95125 76.1986 6.05877L76.218 6.07744C76.2845 6.13866 76.345 6.20437 76.4002 6.2753L76.4219 6.30293C76.5174 6.42464 76.5966 6.55978 76.6556 6.70314C76.7019 6.81514 76.7355 6.93312 76.7571 7.05258L76.7594 7.06602C76.7818 7.1937 76.79 7.32362 76.7825 7.45354V7.47146L76.7818 7.46922Z" fill="#006837"/>
<path d="M88.9748 21.2146H3.64129C2.55563 21.2146 1.69995 20.7942 1.2303 20.0311C0.703901 19.1755 0.750941 17.9942 1.35798 16.7921L7.39702 4.84768C8.49238 2.6816 11.161 0.919464 13.3472 0.919464H98.68C99.7657 0.919464 100.621 1.33984 101.091 2.10293C101.617 2.95936 101.57 4.13984 100.963 5.34197L94.925 17.2864C93.8304 19.4525 91.1611 21.2146 88.9748 21.2146ZM13.3472 2.01482C11.5634 2.01482 9.28609 3.53802 8.37441 5.34197L2.33611 17.2864C1.90379 18.1413 1.84107 18.9328 2.16363 19.4577C2.42571 19.8841 2.95062 20.1192 3.64129 20.1192H88.9741C90.7579 20.1192 93.0352 18.5953 93.9469 16.7921L99.9852 4.84768C100.418 3.992 100.481 3.20128 100.158 2.67637C99.8956 2.25002 99.3707 2.01482 98.68 2.01482H13.3472Z" fill="#DA1F21"/>
<path d="M109.133 4.06143C109.133 5.77503 107.788 7.12053 106.038 7.12053C104.288 7.12053 102.923 5.77503 102.923 4.06143C102.923 2.34783 104.305 1.03967 106.038 1.03967C107.77 1.03967 109.133 2.38517 109.133 4.06143ZM103.697 4.06143C103.697 5.40693 104.692 6.47541 106.056 6.47541C107.419 6.47541 108.359 5.40618 108.359 4.07935C108.359 2.75253 107.382 1.64671 106.037 1.64671C104.691 1.64671 103.697 2.73386 103.697 4.06069V4.06143Z" fill="#DA1F21"/>
<path d="M107.291 4.89024C107.199 4.4848 107.033 4.26379 106.737 4.15329V4.1167C107.106 4.00619 107.364 3.74784 107.364 3.41632C107.364 3.12139 107.235 2.88171 107.069 2.75254C106.848 2.62411 106.589 2.53152 106.019 2.53152C105.522 2.53152 105.134 2.56811 104.858 2.62336V5.64512H105.558V4.4288H105.89C106.277 4.4288 106.461 4.57664 106.516 4.90816C106.608 5.25835 106.663 5.53462 106.755 5.64512H107.511C107.438 5.53462 107.382 5.35019 107.29 4.8895L107.291 4.89024ZM105.908 3.93227H105.577V3.06614C105.651 3.04747 105.78 3.02955 105.964 3.02955C106.406 3.02955 106.609 3.21398 106.609 3.49024C106.609 3.80384 106.295 3.93227 105.908 3.93227Z" fill="#008F41"/>
</svg>
